<?xml version="1.0" standalone="no"?>
<!DOCTYPE svg PUBLIC "-//W3C//DTD SVG 20010904//EN"
 "http://www.w3.org/TR/2001/REC-SVG-20010904/DTD/svg10.dtd">
<svg version="1.0" xmlns="http://www.w3.org/2000/svg"
 width="900.000000pt" height="900.000000pt" viewBox="0 0 900.000000 900.000000"
 preserveAspectRatio="xMidYMid meet">
<metadata>
Created by potrace 1.14, written by Peter Selinger 2001-2017
</metadata>
<g transform="translate(0.000000,900.000000) scale(0.100000,-0.100000)"
fill="#000000" stroke="none">
<path d="M6250 8393 c-14 -1 -65 -8 -115 -14 -98 -11 -256 -49 -338 -81 -29
-11 -70 -27 -92 -35 -22 -8 -43 -19 -46 -25 -3 -5 -8 -9 -10 -8 -9 3 -125 -55
-139 -70 -3 -3 -22 -14 -42 -25 -21 -11 -38 -23 -38 -28 0 -4 -4 -5 -10 -2 -5
3 -10 2 -10 -3 0 -5 -19 -22 -42 -37 -24 -16 -55 -40 -69 -54 -15 -14 -37 -35
-50 -45 -29 -23 -148 -136 -144 -136 2 0 -18 -22 -43 -49 -105 -110 -132 -142
-132 -151 0 -6 -3 -10 -7 -10 -5 -1 -28 -28 -53 -61 -25 -33 -61 -79 -80 -103
-97 -118 -240 -308 -240 -318 0 -5 -4 -6 -10 -3 -9 6 -14 -8 -11 -27 0 -5 -3
-8 -7 -8 -5 0 -26 -25 -48 -55 -21 -30 -42 -55 -46 -55 -5 0 -8 -4 -8 -10 0
-8 -116 -165 -160 -217 -5 -7 -10 -15 -10 -18 0 -5 -32 -44 -57 -71 -7 -7 -13
-16 -13 -21 0 -4 -14 -22 -30 -40 -17 -18 -30 -37 -30 -42 0 -6 -9 -21 -20
-33 -38 -43 -64 -79 -77 -108 -4 -8 -11 -19 -15 -25 -36 -44 -137 -228 -142
-256 -1 -8 -6 -21 -11 -29 -5 -8 -10 -19 -11 -25 -1 -5 -11 -37 -22 -70 -20
-58 -42 -134 -48 -165 -6 -28 -63 -216 -75 -246 -7 -16 -13 -34 -15 -41 -8
-40 -173 -333 -232 -410 -13 -18 -20 -33 -16 -33 5 0 4 -4 -2 -8 -14 -8 -107
-182 -98 -182 4 0 0 -7 -7 -17 -13 -15 -18 -168 -8 -231 4 -20 -8 -29 -90 -72
-51 -27 -100 -55 -107 -61 -8 -6 -14 -8 -14 -4 0 4 -18 -8 -41 -26 -40 -31
-41 -34 -37 -81 l5 -48 -32 0 c-27 0 -35 -6 -49 -35 -14 -28 -15 -45 -6 -98 8
-52 31 -126 43 -140 4 -5 -38 -44 -54 -50 -33 -11 -72 -76 -77 -126 -4 -46
-20 -66 -55 -69 -14 -1 -57 -55 -63 -79 -6 -24 0 -85 10 -101 4 -7 -9 -16 -31
-22 -67 -20 -113 -72 -113 -129 0 -43 -8 -56 -37 -65 -29 -9 -56 -53 -50 -82
2 -13 -1 -24 -7 -25 -6 0 -22 -2 -34 -5 -14 -2 -36 5 -53 17 -17 12 -47 23
-68 26 -48 7 -65 -16 -55 -74 l6 -39 -54 -21 c-129 -52 -293 -96 -405 -111
-123 -15 -341 -6 -427 19 -21 6 -46 12 -55 14 -9 2 -43 11 -76 21 -33 10 -62
19 -65 19 -3 1 -18 7 -33 13 -16 7 -35 12 -43 12 -8 0 -14 5 -14 12 0 6 -3 8
-7 5 -3 -4 -12 -2 -20 4 -7 6 -13 9 -13 6 0 -6 -146 66 -206 101 -30 18 -107
75 -132 99 -7 7 -18 13 -23 13 -5 0 -9 4 -9 9 0 5 -18 28 -40 51 -22 23 -40
46 -40 50 0 6 -43 57 -52 62 -10 5 -48 -25 -48 -37 0 -8 -4 -15 -8 -15 -8 0
-45 -71 -48 -92 -1 -4 -3 -10 -4 -13 -3 -6 -3 -7 -20 -80 -14 -62 -17 -243 -6
-327 3 -26 13 -74 22 -105 8 -32 17 -65 19 -73 9 -41 50 -159 66 -191 10 -20
15 -39 12 -43 -4 -3 -2 -6 4 -6 13 0 35 -49 28 -61 -4 -5 -2 -9 4 -9 6 0 20
-19 32 -42 12 -24 41 -73 65 -110 23 -36 40 -69 37 -72 -4 -3 -2 -6 4 -6 6 0
26 -21 45 -47 61 -85 187 -231 256 -295 37 -35 83 -79 103 -98 21 -19 44 -39
52 -45 8 -5 62 -46 120 -90 58 -44 152 -109 209 -145 132 -82 428 -232 583
-295 66 -26 170 -69 230 -95 125 -54 238 -97 340 -130 39 -13 79 -27 90 -33
11 -6 27 -11 35 -12 15 -2 172 -50 200 -62 8 -3 20 -7 25 -8 45 -6 85 -19 85
-27 0 -5 4 -7 9 -4 5 3 51 -6 102 -20 52 -14 110 -28 129 -31 19 -3 37 -9 38
-14 2 -5 8 -7 13 -4 10 7 129 -16 129 -25 0 -3 21 -6 47 -7 27 -2 55 -6 63 -9
8 -4 26 -8 40 -9 43 -6 104 -15 128 -20 13 -2 50 -7 83 -10 54 -6 61 -4 85 21
26 25 29 26 53 11 21 -12 29 -13 43 -3 10 7 15 16 11 19 -3 4 1 7 10 7 10 0
17 -4 17 -8 0 -7 101 -42 140 -49 8 -1 20 -10 27 -19 7 -10 13 -15 13 -11 0 4
11 2 26 -3 97 -37 502 -44 804 -14 105 11 137 15 165 19 17 3 48 7 70 10 46 6
68 10 148 25 31 6 62 8 67 5 6 -3 10 -2 10 3 0 12 177 45 192 36 7 -5 8 -3 3
6 -6 10 -1 12 19 8 14 -3 26 -2 26 2 0 4 15 11 33 14 75 14 356 99 484 146 76
29 145 52 153 53 8 1 17 4 20 7 3 3 57 28 120 54 148 62 529 249 644 316 519
301 913 686 1102 1075 27 55 51 102 54 105 6 5 51 153 69 225 34 135 34 349 0
440 -22 58 -40 94 -50 100 -5 4 -21 -5 -33 -18 -13 -14 -27 -23 -30 -20 -3 4
-6 -1 -6 -11 0 -9 -3 -15 -7 -13 -10 6 -34 -19 -26 -27 4 -3 2 -6 -4 -6 -6 0
-27 -15 -47 -33 -56 -52 -104 -91 -191 -157 -44 -33 -84 -63 -90 -68 -37 -28
-143 -92 -153 -92 -7 0 -12 -4 -12 -10 0 -5 -7 -10 -15 -10 -8 0 -15 -4 -15
-10 0 -5 -3 -9 -7 -8 -9 2 -65 -23 -73 -32 -10 -12 -166 -59 -215 -65 -184
-25 -408 3 -595 72 -52 20 -96 39 -98 44 -2 5 -10 9 -17 9 -8 0 -18 7 -23 16
-5 9 -12 15 -16 14 -4 0 -18 8 -32 19 -24 19 -25 24 -19 85 8 74 -6 132 -35
141 -22 7 -72 -4 -65 -15 3 -4 -4 -10 -15 -13 -20 -5 -45 15 -33 26 3 4 -1 7
-10 7 -22 0 -67 98 -60 133 6 29 -13 87 -28 87 -5 0 -9 7 -9 16 0 8 -4 13 -9
10 -15 -9 -45 33 -62 89 -14 47 -59 133 -111 214 -23 37 -22 51 11 103 16 25
27 49 24 52 -4 3 -1 6 5 6 26 0 33 128 7 143 -8 4 -13 12 -10 18 4 5 0 9 -7 9
-7 0 -24 9 -37 19 -23 18 -23 19 -6 45 28 42 22 82 -17 116 -18 16 -36 26 -40
24 -4 -3 -8 -1 -8 4 0 4 -19 19 -42 32 -52 29 -68 44 -68 63 0 7 -19 30 -41
51 l-41 37 7 92 c3 50 8 94 10 97 1 3 6 32 9 65 4 33 11 86 17 119 17 97 10
213 -19 286 -3 8 -6 18 -6 21 -1 3 -9 13 -18 23 -10 10 -18 23 -18 31 0 7 -3
15 -7 17 -23 10 -220 295 -215 310 1 5 -2 8 -7 8 -8 0 -26 85 -25 120 2 51 19
178 38 275 2 11 7 43 10 70 9 63 43 282 56 355 5 30 12 75 15 100 3 25 10 70
15 100 5 30 12 73 15 95 3 22 10 67 15 100 5 33 12 78 15 100 5 34 43 236 59
315 46 225 58 251 141 327 41 38 91 77 112 88 21 11 40 22 43 26 7 8 44 22 53
21 4 -1 7 2 7 7 0 7 74 42 100 47 3 0 12 4 20 8 95 42 329 58 354 24 7 -10 16
-18 19 -18 10 0 52 -46 55 -61 2 -7 12 -19 23 -27 11 -7 17 -17 14 -22 -3 -5
-1 -11 5 -15 35 -21 75 -181 65 -258 -7 -55 -52 -180 -66 -185 -5 -2 -17 -20
-26 -40 -10 -20 -30 -49 -46 -64 -15 -16 -25 -28 -22 -28 9 0 -104 -112 -139
-138 -16 -12 -25 -22 -20 -22 5 0 -3 -8 -16 -17 -86 -60 -188 -167 -216 -229
-32 -71 -35 -83 -35 -169 0 -76 1 -87 26 -158 15 -45 71 -156 84 -167 3 -3 11
-13 16 -22 6 -9 29 -44 53 -78 23 -33 42 -65 42 -70 0 -6 4 -10 9 -10 10 0 73
-127 91 -183 16 -50 16 -165 0 -214 -27 -84 -87 -169 -139 -198 -15 -7 -50
-25 -78 -40 -29 -15 -53 -28 -53 -30 0 -4 25 0 75 12 17 4 33 6 38 5 4 -1 7 3
7 10 0 6 3 8 6 5 8 -8 144 62 144 74 0 5 5 9 12 9 14 0 128 118 128 132 0 5 6
16 14 24 19 18 55 128 61 184 8 85 -16 179 -70 265 -56 90 -70 128 -69 190 1
87 34 152 142 280 44 53 47 58 60 81 6 11 41 33 79 49 77 32 205 96 213 105 3
4 28 23 57 42 29 20 49 38 46 42 -4 3 -1 6 4 6 6 0 28 16 47 35 20 19 34 35
31 35 -3 0 3 9 13 19 26 30 36 43 52 76 8 17 19 33 25 37 5 4 6 8 2 8 -4 0 -3
8 2 18 6 11 12 30 15 43 2 13 9 44 14 68 23 98 5 413 -28 517 -6 17 -12 40
-14 50 -8 37 -44 120 -80 181 -33 56 -129 173 -150 182 -4 2 -16 12 -24 22 -9
11 -22 19 -29 19 -7 0 -13 4 -13 9 0 8 -179 101 -235 122 -162 61 -400 97
-635 96 -80 0 -156 -2 -170 -4z"/>
</g>
</svg>
